<?xml version="1.0" encoding="utf-8"?><!-- Uploaded to: SVG Repo, www.svgrepo.com, Generator: SVG Repo Mixer Tools -->
<svg fill="#000000" width="800px" height="800px" viewBox="0 0 24 24" xmlns="http://www.w3.org/2000/svg">
  <path fill-rule="evenodd" d="M18.6127185,4.20960662 L18.7069258,4.29279737 L21.7069258,7.29286736 C21.7339397,7.31988131 21.7594153,7.34843364 21.7832098,7.37838166 L21.8659223,7.49964703 L21.8659223,7.49964703 L21.9043128,7.57293603 L21.9043128,7.57293603 L21.9405322,7.65997286 L21.9405322,7.65997286 L21.9723902,7.76643468 L21.9723902,7.76643468 L21.9930913,7.88335302 L21.9992768,7.96697098 L21.9992768,7.96697098 L21.9980859,8.05903291 L21.9845213,8.17480336 L21.9845213,8.17480336 L21.9500809,8.31215059 L21.9500809,8.31215059 L21.9061457,8.42323249 L21.9061457,8.42323249 L21.8538236,8.52072222 L21.8538236,8.52072222 L21.7870331,8.61677594 L21.7069258,8.70712506 L18.7069258,11.7072026 C18.3164015,12.097737 17.6832365,12.097737 17.2927122,11.7072026 C16.9322283,11.3467093 16.9044987,10.7794636 17.2095236,10.3871623 L17.2927122,10.2929525 L18.584819,9.00010342 L8.99981902,9.00002585 C8.48698318,9.00002585 8.06431186,8.61398566 8.00654675,8.11664698 L7.99981902,7.99997415 C7.99981902,7.4476894 8.44753427,6.99997415 8.99981902,6.99997415 L18.584819,7.00010342 L17.2927122,5.7070475 C16.9322283,5.34655422 16.9044987,4.7793085 17.2095236,4.38700715 L17.2927122,4.29279737 C17.6231559,3.9623452 18.1273245,3.9115064 18.511222,4.14028098 L18.6127185,4.20960662 L18.6127185,4.20960662 Z M5.29255711,19.7072026 L2.29255711,16.7071326 L2.1959774,16.5951852 L2.12453966,16.4843028 L2.12453966,16.4843028 L2.07076785,16.3710844 L2.07076785,16.3710844 L2.03538486,16.2658655 L2.03538486,16.2658655 L2.01496161,16.1748034 L2.01496161,16.1748034 L2.00139699,16.0590329 L2.00139699,15.940856 L2.00139699,15.940856 L2.0149356,15.8253387 L2.0149356,15.8253387 L2.04953478,15.6872504 L2.04953478,15.6872504 L2.06905084,15.6332931 L2.10832658,15.546141 L2.10832658,15.546141 L2.14573132,15.479314 L2.14573132,15.479314 L2.20078783,15.3982951 L2.20078783,15.3982951 L2.25320781,15.3345242 L2.25320781,15.3345242 L2.29255711,15.2928674 L5.29255711,12.2927974 L5.38676445,12.2096066 C5.74636472,11.9299932 6.25296306,11.9299932 6.61256333,12.2096066 L6.70677067,12.2927974 L6.78995928,12.3870071 C7.06956543,12.7466167 7.06956543,13.2532282 6.78995928,13.6128377 L6.70677067,13.7070475 L5.41466389,15.0001034 L14.9996639,14.9999741 C15.5124997,14.9999741 15.9351711,15.3860143 15.9929362,15.883353 L15.9996639,15.9999741 L15.9929362,16.116647 C15.9396145,16.5757288 15.5753669,16.9399765 15.116285,16.9932981 L14.9996639,17.0000259 L5.41466389,17.0001034 L6.70677067,18.2929525 L6.78995928,18.3871623 C7.09498417,18.7794636 7.06725463,19.3467093 6.70677067,19.7072026 C6.34628671,20.0676959 5.77905565,20.0954262 5.38676445,19.7903934 L5.29255711,19.7072026 Z"/>
</svg>