<?xml version="1.0" encoding="iso-8859-1"?>
<!-- Uploaded to: SVG Repo, www.svgrepo.com, Generator: SVG Repo Mixer Tools -->
<!DOCTYPE svg PUBLIC "-//W3C//DTD SVG 1.1//EN" "http://www.w3.org/Graphics/SVG/1.1/DTD/svg11.dtd">
<svg fill="#000000" version="1.1" id="Capa_1" xmlns="http://www.w3.org/2000/svg" xmlns:xlink="http://www.w3.org/1999/xlink" 
	 width="800px" height="800px" viewBox="0 0 360.407 360.407"
	 xml:space="preserve">
<g>
	<g>
		<path d="M344.747,87.187c-1.524-2.688-4.083-4.155-7.193-4.155c-13.493,0-44.628-20.329-74.748-39.977
			C228.879,20.92,196.837,0,179.433,0c-18.354,0-55.857,23.884-92.21,47.026c-27.775,17.69-56.502,35.996-65.896,35.996
			c-2.627,0-4.846,1.348-6.095,3.702c-0.811,1.537-1.216,3.468-1.216,5.92c0,34.75,109.93,267.763,165.412,267.763
			c52.389,0,166.966-222.931,166.966-265.559C346.393,91.624,345.858,89.111,344.747,87.187z M213.242,109.875
			c8.995,4.483,17.012,11.007,23.19,18.864c-6.179,1.601-12.178,2.861-17.834,3.747c-1.729-10.13-3.867-17.882-5.345-22.599v-0.012
			H213.242z M186.197,102.877c6.683,0.315,13.222,1.576,19.419,3.753v0.012c1.237,3.438,4.438,12.914,6.821,26.691
			c-8.623,1.075-17.449,1.643-26.247,1.673v-32.129H186.197z M186.197,141.341c9.559-0.057,18.464-0.628,27.201-1.748l0,0
			c1.249,9.106,1.838,18.51,1.735,27.953h-28.937V141.341z M186.197,173.788h28.786c-0.396,8.695-1.477,17.603-3.206,26.49
			c-8.551-1.038-17.156-1.651-25.574-1.843v-24.647H186.197z M152.314,110.151c-1.414,4.594-3.468,12.121-5.17,21.96
			c-7.755-1.195-13.781-2.48-17.462-3.333C135.763,121.042,143.59,114.616,152.314,110.151z M125.789,134.261
			c4.26,1.09,11.253,2.688,20.377,4.102c-1.333,9.509-1.949,19.32-1.838,29.177h-29.054
			C115.814,155.716,119.457,144.205,125.789,134.261z M115.28,173.788h29.177c0.399,9.019,1.495,18.162,3.215,27.121
			c-7.668,1.183-15.303,2.822-22.677,4.864C119.147,196.128,115.796,185.067,115.28,173.788z M128.692,211.249
			c6.771-1.802,13.601-3.213,20.329-4.204c2.009,8.815,4.771,17.714,8.197,26.434C145.953,228.831,136.096,221.132,128.692,211.249z
			 M179.961,238.474c-4.93-0.233-9.815-0.996-14.511-2.281c-4.909-11.697-8.362-21.785-10.256-29.994
			c7.951-0.931,16.276-1.411,24.767-1.436V238.474z M179.961,198.435c-8.941,0.042-17.727,0.594-26.127,1.609
			c-1.702-8.779-2.774-17.625-3.162-26.256h29.289V198.435z M179.961,167.546h-29.424c-0.117-9.53,0.486-19.057,1.777-28.304
			c9.053,1.188,18.348,1.882,27.646,2.071V167.546z M179.961,134.976c-8.86-0.189-17.843-0.855-26.673-2
			c2.366-13.543,5.458-22.767,6.683-26.133c6.407-2.317,13.136-3.65,19.99-3.966V134.976z M186.197,238.474v-33.687
			c7.95,0.187,16.093,0.757,24.199,1.729c-2.349,10.004-5.771,20.789-9.452,29.652C196.219,237.46,191.253,238.233,186.197,238.474z
			 M208.354,233.694c3.459-8.695,6.209-17.559,8.238-26.373c9.914,1.43,17.318,3.086,20.854,3.928
			C229.912,221.301,219.872,229.059,208.354,233.694z M241.165,205.724L241.165,205.724c-3.867-0.984-12.034-2.954-23.221-4.611
			c1.747-9.115,2.858-18.312,3.261-27.331h29.646C250.34,185.044,247.001,196.08,241.165,205.724z M221.331,167.546
			c0.102-9.782-0.511-19.522-1.819-28.968c7.302-1.162,14.087-2.618,20.771-4.452c6.389,9.956,10.046,21.515,10.574,33.42H221.331z"
			/>
	</g>
</g>
</svg>